<svg xmlns="http://www.w3.org/2000/svg" viewBox="0 0 65 65" shape-rendering="crispEdges"><rect width="100%" height="100%" fill="white"/><path d="M4 4h1v1h-1zM5 4h1v1h-1zM6 4h1v1h-1zM7 4h1v1h-1zM8 4h1v1h-1zM9 4h1v1h-1zM10 4h1v1h-1zM12 4h1v1h-1zM17 4h1v1h-1zM18 4h1v1h-1zM22 4h1v1h-1zM23 4h1v1h-1zM26 4h1v1h-1zM27 4h1v1h-1zM28 4h1v1h-1zM31 4h1v1h-1zM34 4h1v1h-1zM35 4h1v1h-1zM41 4h1v1h-1zM45 4h1v1h-1zM46 4h1v1h-1zM47 4h1v1h-1zM48 4h1v1h-1zM49 4h1v1h-1zM50 4h1v1h-1zM51 4h1v1h-1zM54 4h1v1h-1zM55 4h1v1h-1zM56 4h1v1h-1zM57 4h1v1h-1zM58 4h1v1h-1zM59 4h1v1h-1zM60 4h1v1h-1zM4 5h1v1h-1zM10 5h1v1h-1zM13 5h1v1h-1zM17 5h1v1h-1zM19 5h1v1h-1zM20 5h1v1h-1zM22 5h1v1h-1zM24 5h1v1h-1zM26 5h1v1h-1zM28 5h1v1h-1zM29 5h1v1h-1zM32 5h1v1h-1zM34 5h1v1h-1zM36 5h1v1h-1zM37 5h1v1h-1zM38 5h1v1h-1zM39 5h1v1h-1zM40 5h1v1h-1zM42 5h1v1h-1zM43 5h1v1h-1zM44 5h1v1h-1zM45 5h1v1h-1zM48 5h1v1h-1zM49 5h1v1h-1zM51 5h1v1h-1zM54 5h1v1h-1zM60 5h1v1h-1zM4 6h1v1h-1zM6 6h1v1h-1zM7 6h1v1h-1zM8 6h1v1h-1zM10 6h1v1h-1zM12 6h1v1h-1zM13 6h1v1h-1zM17 6h1v1h-1zM20 6h1v1h-1zM21 6h1v1h-1zM24 6h1v1h-1zM29 6h1v1h-1zM31 6h1v1h-1zM33 6h1v1h-1zM36 6h1v1h-1zM38 6h1v1h-1zM42 6h1v1h-1zM47 6h1v1h-1zM48 6h1v1h-1zM50 6h1v1h-1zM51 6h1v1h-1zM54 6h1v1h-1zM56 6h1v1h-1zM57 6h1v1h-1zM58 6h1v1h-1zM60 6h1v1h-1zM4 7h1v1h-1zM6 7h1v1h-1zM7 7h1v1h-1zM8 7h1v1h-1zM10 7h1v1h-1zM12 7h1v1h-1zM13 7h1v1h-1zM15 7h1v1h-1zM16 7h1v1h-1zM21 7h1v1h-1zM22 7h1v1h-1zM27 7h1v1h-1zM28 7h1v1h-1zM29 7h1v1h-1zM31 7h1v1h-1zM34 7h1v1h-1zM39 7h1v1h-1zM40 7h1v1h-1zM42 7h1v1h-1zM45 7h1v1h-1zM47 7h1v1h-1zM49 7h1v1h-1zM51 7h1v1h-1zM54 7h1v1h-1zM56 7h1v1h-1zM57 7h1v1h-1zM58 7h1v1h-1zM60 7h1v1h-1zM4 8h1v1h-1zM6 8h1v1h-1zM7 8h1v1h-1zM8 8h1v1h-1zM10 8h1v1h-1zM12 8h1v1h-1zM13 8h1v1h-1zM14 8h1v1h-1zM15 8h1v1h-1zM16 8h1v1h-1zM17 8h1v1h-1zM21 8h1v1h-1zM22 8h1v1h-1zM23 8h1v1h-1zM25 8h1v1h-1zM27 8h1v1h-1zM30 8h1v1h-1zM31 8h1v1h-1zM32 8h1v1h-1zM33 8h1v1h-1zM34 8h1v1h-1zM37 8h1v1h-1zM40 8h1v1h-1zM42 8h1v1h-1zM47 8h1v1h-1zM48 8h1v1h-1zM49 8h1v1h-1zM51 8h1v1h-1zM54 8h1v1h-1zM56 8h1v1h-1zM57 8h1v1h-1zM58 8h1v1h-1zM60 8h1v1h-1zM4 9h1v1h-1zM10 9h1v1h-1zM14 9h1v1h-1zM15 9h1v1h-1zM17 9h1v1h-1zM18 9h1v1h-1zM19 9h1v1h-1zM20 9h1v1h-1zM21 9h1v1h-1zM23 9h1v1h-1zM24 9h1v1h-1zM27 9h1v1h-1zM29 9h1v1h-1zM30 9h1v1h-1zM34 9h1v1h-1zM35 9h1v1h-1zM39 9h1v1h-1zM42 9h1v1h-1zM44 9h1v1h-1zM50 9h1v1h-1zM54 9h1v1h-1zM60 9h1v1h-1zM4 10h1v1h-1zM5 10h1v1h-1zM6 10h1v1h-1zM7 10h1v1h-1zM8 10h1v1h-1zM9 10h1v1h-1zM10 10h1v1h-1zM12 10h1v1h-1zM14 10h1v1h-1zM16 10h1v1h-1zM18 10h1v1h-1zM20 10h1v1h-1zM22 10h1v1h-1zM24 10h1v1h-1zM26 10h1v1h-1zM28 10h1v1h-1zM30 10h1v1h-1zM32 10h1v1h-1zM34 10h1v1h-1zM36 10h1v1h-1zM38 10h1v1h-1zM40 10h1v1h-1zM42 10h1v1h-1zM44 10h1v1h-1zM46 10h1v1h-1zM48 10h1v1h-1zM50 10h1v1h-1zM52 10h1v1h-1zM54 10h1v1h-1zM55 10h1v1h-1zM56 10h1v1h-1zM57 10h1v1h-1zM58 10h1v1h-1zM59 10h1v1h-1zM60 10h1v1h-1zM13 11h1v1h-1zM14 11h1v1h-1zM17 11h1v1h-1zM21 11h1v1h-1zM22 11h1v1h-1zM23 11h1v1h-1zM27 11h1v1h-1zM30 11h1v1h-1zM34 11h1v1h-1zM35 11h1v1h-1zM36 11h1v1h-1zM37 11h1v1h-1zM38 11h1v1h-1zM40 11h1v1h-1zM42 11h1v1h-1zM43 11h1v1h-1zM45 11h1v1h-1zM47 11h1v1h-1zM52 11h1v1h-1zM4 12h1v1h-1zM5 12h1v1h-1zM6 12h1v1h-1zM7 12h1v1h-1zM10 12h1v1h-1zM12 12h1v1h-1zM13 12h1v1h-1zM15 12h1v1h-1zM16 12h1v1h-1zM21 12h1v1h-1zM23 12h1v1h-1zM24 12h1v1h-1zM25 12h1v1h-1zM26 12h1v1h-1zM27 12h1v1h-1zM30 12h1v1h-1zM31 12h1v1h-1zM32 12h1v1h-1zM33 12h1v1h-1zM34 12h1v1h-1zM35 12h1v1h-1zM37 12h1v1h-1zM38 12h1v1h-1zM43 12h1v1h-1zM44 12h1v1h-1zM46 12h1v1h-1zM47 12h1v1h-1zM49 12h1v1h-1zM50 12h1v1h-1zM53 12h1v1h-1zM56 12h1v1h-1zM57 12h1v1h-1zM58 12h1v1h-1zM60 12h1v1h-1zM9 13h1v1h-1zM12 13h1v1h-1zM14 13h1v1h-1zM17 13h1v1h-1zM18 13h1v1h-1zM19 13h1v1h-1zM23 13h1v1h-1zM26 13h1v1h-1zM27 13h1v1h-1zM28 13h1v1h-1zM29 13h1v1h-1zM30 13h1v1h-1zM31 13h1v1h-1zM33 13h1v1h-1zM34 13h1v1h-1zM35 13h1v1h-1zM37 13h1v1h-1zM39 13h1v1h-1zM41 13h1v1h-1zM45 13h1v1h-1zM46 13h1v1h-1zM47 13h1v1h-1zM51 13h1v1h-1zM52 13h1v1h-1zM55 13h1v1h-1zM58 13h1v1h-1zM59 13h1v1h-1zM60 13h1v1h-1zM5 14h1v1h-1zM7 14h1v1h-1zM8 14h1v1h-1zM9 14h1v1h-1zM10 14h1v1h-1zM12 14h1v1h-1zM13 14h1v1h-1zM17 14h1v1h-1zM20 14h1v1h-1zM21 14h1v1h-1zM24 14h1v1h-1zM25 14h1v1h-1zM26 14h1v1h-1zM28 14h1v1h-1zM31 14h1v1h-1zM33 14h1v1h-1zM36 14h1v1h-1zM38 14h1v1h-1zM39 14h1v1h-1zM42 14h1v1h-1zM43 14h1v1h-1zM44 14h1v1h-1zM45 14h1v1h-1zM46 14h1v1h-1zM47 14h1v1h-1zM53 14h1v1h-1zM57 14h1v1h-1zM58 14h1v1h-1zM59 14h1v1h-1zM60 14h1v1h-1zM5 15h1v1h-1zM7 15h1v1h-1zM8 15h1v1h-1zM9 15h1v1h-1zM11 15h1v1h-1zM12 15h1v1h-1zM13 15h1v1h-1zM16 15h1v1h-1zM17 15h1v1h-1zM18 15h1v1h-1zM19 15h1v1h-1zM21 15h1v1h-1zM24 15h1v1h-1zM27 15h1v1h-1zM28 15h1v1h-1zM33 15h1v1h-1zM34 15h1v1h-1zM35 15h1v1h-1zM36 15h1v1h-1zM39 15h1v1h-1zM40 15h1v1h-1zM41 15h1v1h-1zM44 15h1v1h-1zM47 15h1v1h-1zM51 15h1v1h-1zM52 15h1v1h-1zM53 15h1v1h-1zM54 15h1v1h-1zM55 15h1v1h-1zM56 15h1v1h-1zM57 15h1v1h-1zM59 15h1v1h-1zM60 15h1v1h-1zM4 16h1v1h-1zM6 16h1v1h-1zM7 16h1v1h-1zM8 16h1v1h-1zM10 16h1v1h-1zM12 16h1v1h-1zM13 16h1v1h-1zM14 16h1v1h-1zM15 16h1v1h-1zM17 16h1v1h-1zM18 16h1v1h-1zM19 16h1v1h-1zM20 16h1v1h-1zM22 16h1v1h-1zM26 16h1v1h-1zM27 16h1v1h-1zM28 16h1v1h-1zM30 16h1v1h-1zM35 16h1v1h-1zM37 16h1v1h-1zM38 16h1v1h-1zM39 16h1v1h-1zM40 16h1v1h-1zM41 16h1v1h-1zM45 16h1v1h-1zM47 16h1v1h-1zM50 16h1v1h-1zM52 16h1v1h-1zM58 16h1v1h-1zM59 16h1v1h-1zM60 16h1v1h-1zM4 17h1v1h-1zM8 17h1v1h-1zM9 17h1v1h-1zM11 17h1v1h-1zM12 17h1v1h-1zM13 17h1v1h-1zM15 17h1v1h-1zM16 17h1v1h-1zM18 17h1v1h-1zM19 17h1v1h-1zM23 17h1v1h-1zM24 17h1v1h-1zM30 17h1v1h-1zM31 17h1v1h-1zM32 17h1v1h-1zM34 17h1v1h-1zM37 17h1v1h-1zM40 17h1v1h-1zM41 17h1v1h-1zM42 17h1v1h-1zM43 17h1v1h-1zM44 17h1v1h-1zM47 17h1v1h-1zM48 17h1v1h-1zM49 17h1v1h-1zM53 17h1v1h-1zM54 17h1v1h-1zM56 17h1v1h-1zM57 17h1v1h-1zM59 17h1v1h-1zM60 17h1v1h-1zM4 18h1v1h-1zM10 18h1v1h-1zM13 18h1v1h-1zM15 18h1v1h-1zM17 18h1v1h-1zM20 18h1v1h-1zM21 18h1v1h-1zM23 18h1v1h-1zM24 18h1v1h-1zM30 18h1v1h-1zM32 18h1v1h-1zM35 18h1v1h-1zM39 18h1v1h-1zM43 18h1v1h-1zM44 18h1v1h-1zM45 18h1v1h-1zM46 18h1v1h-1zM47 18h1v1h-1zM48 18h1v1h-1zM49 18h1v1h-1zM51 18h1v1h-1zM54 18h1v1h-1zM57 18h1v1h-1zM58 18h1v1h-1zM7 19h1v1h-1zM9 19h1v1h-1zM13 19h1v1h-1zM14 19h1v1h-1zM15 19h1v1h-1zM17 19h1v1h-1zM18 19h1v1h-1zM19 19h1v1h-1zM20 19h1v1h-1zM24 19h1v1h-1zM28 19h1v1h-1zM29 19h1v1h-1zM31 19h1v1h-1zM34 19h1v1h-1zM36 19h1v1h-1zM39 19h1v1h-1zM40 19h1v1h-1zM42 19h1v1h-1zM43 19h1v1h-1zM45 19h1v1h-1zM48 19h1v1h-1zM49 19h1v1h-1zM57 19h1v1h-1zM58 19h1v1h-1zM59 19h1v1h-1zM60 19h1v1h-1zM4 20h1v1h-1zM6 20h1v1h-1zM7 20h1v1h-1zM8 20h1v1h-1zM9 20h1v1h-1zM10 20h1v1h-1zM13 20h1v1h-1zM14 20h1v1h-1zM15 20h1v1h-1zM16 20h1v1h-1zM17 20h1v1h-1zM18 20h1v1h-1zM19 20h1v1h-1zM24 20h1v1h-1zM25 20h1v1h-1zM27 20h1v1h-1zM31 20h1v1h-1zM32 20h1v1h-1zM35 20h1v1h-1zM36 20h1v1h-1zM37 20h1v1h-1zM38 20h1v1h-1zM41 20h1v1h-1zM42 20h1v1h-1zM43 20h1v1h-1zM45 20h1v1h-1zM46 20h1v1h-1zM47 20h1v1h-1zM48 20h1v1h-1zM50 20h1v1h-1zM55 20h1v1h-1zM58 20h1v1h-1zM6 21h1v1h-1zM7 21h1v1h-1zM11 21h1v1h-1zM13 21h1v1h-1zM18 21h1v1h-1zM19 21h1v1h-1zM20 21h1v1h-1zM22 21h1v1h-1zM25 21h1v1h-1zM27 21h1v1h-1zM29 21h1v1h-1zM30 21h1v1h-1zM35 21h1v1h-1zM36 21h1v1h-1zM38 21h1v1h-1zM39 21h1v1h-1zM44 21h1v1h-1zM45 21h1v1h-1zM47 21h1v1h-1zM48 21h1v1h-1zM49 21h1v1h-1zM50 21h1v1h-1zM51 21h1v1h-1zM55 21h1v1h-1zM57 21h1v1h-1zM4 22h1v1h-1zM5 22h1v1h-1zM7 22h1v1h-1zM10 22h1v1h-1zM12 22h1v1h-1zM14 22h1v1h-1zM19 22h1v1h-1zM21 22h1v1h-1zM24 22h1v1h-1zM25 22h1v1h-1zM28 22h1v1h-1zM32 22h1v1h-1zM33 22h1v1h-1zM36 22h1v1h-1zM38 22h1v1h-1zM40 22h1v1h-1zM42 22h1v1h-1zM43 22h1v1h-1zM45 22h1v1h-1zM48 22h1v1h-1zM52 22h1v1h-1zM54 22h1v1h-1zM59 22h1v1h-1zM5 23h1v1h-1zM9 23h1v1h-1zM11 23h1v1h-1zM14 23h1v1h-1zM15 23h1v1h-1zM16 23h1v1h-1zM17 23h1v1h-1zM18 23h1v1h-1zM20 23h1v1h-1zM21 23h1v1h-1zM22 23h1v1h-1zM24 23h1v1h-1zM25 23h1v1h-1zM27 23h1v1h-1zM28 23h1v1h-1zM29 23h1v1h-1zM30 23h1v1h-1zM31 23h1v1h-1zM33 23h1v1h-1zM34 23h1v1h-1zM35 23h1v1h-1zM37 23h1v1h-1zM39 23h1v1h-1zM43 23h1v1h-1zM44 23h1v1h-1zM47 23h1v1h-1zM49 23h1v1h-1zM50 23h1v1h-1zM53 23h1v1h-1zM54 23h1v1h-1zM55 23h1v1h-1zM56 23h1v1h-1zM59 23h1v1h-1zM4 24h1v1h-1zM5 24h1v1h-1zM6 24h1v1h-1zM7 24h1v1h-1zM8 24h1v1h-1zM9 24h1v1h-1zM10 24h1v1h-1zM11 24h1v1h-1zM14 24h1v1h-1zM15 24h1v1h-1zM17 24h1v1h-1zM20 24h1v1h-1zM25 24h1v1h-1zM26 24h1v1h-1zM29 24h1v1h-1zM30 24h1v1h-1zM31 24h1v1h-1zM32 24h1v1h-1zM35 24h1v1h-1zM38 24h1v1h-1zM39 24h1v1h-1zM41 24h1v1h-1zM43 24h1v1h-1zM44 24h1v1h-1zM50 24h1v1h-1zM51 24h1v1h-1zM52 24h1v1h-1zM53 24h1v1h-1zM55 24h1v1h-1zM56 24h1v1h-1zM58 24h1v1h-1zM4 25h1v1h-1zM6 25h1v1h-1zM7 25h1v1h-1zM14 25h1v1h-1zM16 25h1v1h-1zM17 25h1v1h-1zM20 25h1v1h-1zM21 25h1v1h-1zM27 25h1v1h-1zM29 25h1v1h-1zM30 25h1v1h-1zM32 25h1v1h-1zM33 25h1v1h-1zM34 25h1v1h-1zM35 25h1v1h-1zM36 25h1v1h-1zM39 25h1v1h-1zM41 25h1v1h-1zM43 25h1v1h-1zM45 25h1v1h-1zM46 25h1v1h-1zM47 25h1v1h-1zM48 25h1v1h-1zM52 25h1v1h-1zM53 25h1v1h-1zM55 25h1v1h-1zM59 25h1v1h-1zM60 25h1v1h-1zM4 26h1v1h-1zM7 26h1v1h-1zM10 26h1v1h-1zM13 26h1v1h-1zM14 26h1v1h-1zM15 26h1v1h-1zM16 26h1v1h-1zM17 26h1v1h-1zM20 26h1v1h-1zM23 26h1v1h-1zM24 26h1v1h-1zM25 26h1v1h-1zM27 26h1v1h-1zM28 26h1v1h-1zM33 26h1v1h-1zM37 26h1v1h-1zM39 26h1v1h-1zM40 26h1v1h-1zM41 26h1v1h-1zM44 26h1v1h-1zM45 26h1v1h-1zM46 26h1v1h-1zM49 26h1v1h-1zM50 26h1v1h-1zM52 26h1v1h-1zM53 26h1v1h-1zM54 26h1v1h-1zM55 26h1v1h-1zM57 26h1v1h-1zM60 26h1v1h-1zM5 27h1v1h-1zM7 27h1v1h-1zM13 27h1v1h-1zM14 27h1v1h-1zM17 27h1v1h-1zM19 27h1v1h-1zM22 27h1v1h-1zM23 27h1v1h-1zM25 27h1v1h-1zM27 27h1v1h-1zM28 27h1v1h-1zM30 27h1v1h-1zM31 27h1v1h-1zM32 27h1v1h-1zM33 27h1v1h-1zM34 27h1v1h-1zM35 27h1v1h-1zM37 27h1v1h-1zM39 27h1v1h-1zM40 27h1v1h-1zM44 27h1v1h-1zM47 27h1v1h-1zM48 27h1v1h-1zM50 27h1v1h-1zM52 27h1v1h-1zM55 27h1v1h-1zM56 27h1v1h-1zM57 27h1v1h-1zM60 27h1v1h-1zM6 28h1v1h-1zM7 28h1v1h-1zM8 28h1v1h-1zM9 28h1v1h-1zM10 28h1v1h-1zM11 28h1v1h-1zM16 28h1v1h-1zM19 28h1v1h-1zM20 28h1v1h-1zM21 28h1v1h-1zM22 28h1v1h-1zM24 28h1v1h-1zM28 28h1v1h-1zM33 28h1v1h-1zM35 28h1v1h-1zM36 28h1v1h-1zM37 28h1v1h-1zM39 28h1v1h-1zM40 28h1v1h-1zM42 28h1v1h-1zM47 28h1v1h-1zM59 28h1v1h-1zM60 28h1v1h-1zM4 29h1v1h-1zM5 29h1v1h-1zM11 29h1v1h-1zM14 29h1v1h-1zM15 29h1v1h-1zM16 29h1v1h-1zM19 29h1v1h-1zM24 29h1v1h-1zM31 29h1v1h-1zM32 29h1v1h-1zM33 29h1v1h-1zM39 29h1v1h-1zM40 29h1v1h-1zM41 29h1v1h-1zM42 29h1v1h-1zM45 29h1v1h-1zM49 29h1v1h-1zM53 29h1v1h-1zM54 29h1v1h-1zM56 29h1v1h-1zM57 29h1v1h-1zM6 30h1v1h-1zM7 30h1v1h-1zM8 30h1v1h-1zM9 30h1v1h-1zM10 30h1v1h-1zM11 30h1v1h-1zM12 30h1v1h-1zM13 30h1v1h-1zM19 30h1v1h-1zM20 30h1v1h-1zM21 30h1v1h-1zM22 30h1v1h-1zM26 30h1v1h-1zM27 30h1v1h-1zM28 30h1v1h-1zM29 30h1v1h-1zM30 30h1v1h-1zM31 30h1v1h-1zM32 30h1v1h-1zM33 30h1v1h-1zM34 30h1v1h-1zM36 30h1v1h-1zM37 30h1v1h-1zM40 30h1v1h-1zM45 30h1v1h-1zM46 30h1v1h-1zM50 30h1v1h-1zM52 30h1v1h-1zM53 30h1v1h-1zM54 30h1v1h-1zM55 30h1v1h-1zM56 30h1v1h-1zM6 31h1v1h-1zM7 31h1v1h-1zM8 31h1v1h-1zM12 31h1v1h-1zM13 31h1v1h-1zM16 31h1v1h-1zM18 31h1v1h-1zM19 31h1v1h-1zM20 31h1v1h-1zM23 31h1v1h-1zM24 31h1v1h-1zM30 31h1v1h-1zM34 31h1v1h-1zM35 31h1v1h-1zM36 31h1v1h-1zM38 31h1v1h-1zM42 31h1v1h-1zM43 31h1v1h-1zM45 31h1v1h-1zM46 31h1v1h-1zM47 31h1v1h-1zM49 31h1v1h-1zM50 31h1v1h-1zM51 31h1v1h-1zM52 31h1v1h-1zM56 31h1v1h-1zM57 31h1v1h-1zM58 31h1v1h-1zM8 32h1v1h-1zM10 32h1v1h-1zM12 32h1v1h-1zM14 32h1v1h-1zM15 32h1v1h-1zM17 32h1v1h-1zM19 32h1v1h-1zM20 32h1v1h-1zM22 32h1v1h-1zM30 32h1v1h-1zM32 32h1v1h-1zM34 32h1v1h-1zM36 32h1v1h-1zM38 32h1v1h-1zM41 32h1v1h-1zM42 32h1v1h-1zM43 32h1v1h-1zM46 32h1v1h-1zM47 32h1v1h-1zM48 32h1v1h-1zM50 32h1v1h-1zM52 32h1v1h-1zM54 32h1v1h-1zM56 32h1v1h-1zM57 32h1v1h-1zM58 32h1v1h-1zM5 33h1v1h-1zM6 33h1v1h-1zM7 33h1v1h-1zM8 33h1v1h-1zM12 33h1v1h-1zM13 33h1v1h-1zM14 33h1v1h-1zM17 33h1v1h-1zM19 33h1v1h-1zM20 33h1v1h-1zM25 33h1v1h-1zM26 33h1v1h-1zM27 33h1v1h-1zM30 33h1v1h-1zM34 33h1v1h-1zM36 33h1v1h-1zM37 33h1v1h-1zM38 33h1v1h-1zM39 33h1v1h-1zM40 33h1v1h-1zM43 33h1v1h-1zM44 33h1v1h-1zM45 33h1v1h-1zM48 33h1v1h-1zM50 33h1v1h-1zM52 33h1v1h-1zM56 33h1v1h-1zM58 33h1v1h-1zM59 33h1v1h-1zM60 33h1v1h-1zM4 34h1v1h-1zM6 34h1v1h-1zM8 34h1v1h-1zM9 34h1v1h-1zM10 34h1v1h-1zM11 34h1v1h-1zM12 34h1v1h-1zM14 34h1v1h-1zM16 34h1v1h-1zM17 34h1v1h-1zM21 34h1v1h-1zM22 34h1v1h-1zM25 34h1v1h-1zM29 34h1v1h-1zM30 34h1v1h-1zM31 34h1v1h-1zM32 34h1v1h-1zM33 34h1v1h-1zM34 34h1v1h-1zM37 34h1v1h-1zM41 34h1v1h-1zM42 34h1v1h-1zM43 34h1v1h-1zM44 34h1v1h-1zM50 34h1v1h-1zM51 34h1v1h-1zM52 34h1v1h-1zM53 34h1v1h-1zM54 34h1v1h-1zM55 34h1v1h-1zM56 34h1v1h-1zM57 34h1v1h-1zM58 34h1v1h-1zM5 35h1v1h-1zM7 35h1v1h-1zM9 35h1v1h-1zM11 35h1v1h-1zM12 35h1v1h-1zM13 35h1v1h-1zM15 35h1v1h-1zM18 35h1v1h-1zM26 35h1v1h-1zM27 35h1v1h-1zM29 35h1v1h-1zM30 35h1v1h-1zM31 35h1v1h-1zM32 35h1v1h-1zM34 35h1v1h-1zM37 35h1v1h-1zM38 35h1v1h-1zM39 35h1v1h-1zM43 35h1v1h-1zM48 35h1v1h-1zM49 35h1v1h-1zM51 35h1v1h-1zM52 35h1v1h-1zM53 35h1v1h-1zM54 35h1v1h-1zM55 35h1v1h-1zM57 35h1v1h-1zM4 36h1v1h-1zM6 36h1v1h-1zM10 36h1v1h-1zM13 36h1v1h-1zM14 36h1v1h-1zM15 36h1v1h-1zM16 36h1v1h-1zM18 36h1v1h-1zM19 36h1v1h-1zM21 36h1v1h-1zM23 36h1v1h-1zM25 36h1v1h-1zM26 36h1v1h-1zM31 36h1v1h-1zM32 36h1v1h-1zM37 36h1v1h-1zM38 36h1v1h-1zM39 36h1v1h-1zM42 36h1v1h-1zM43 36h1v1h-1zM44 36h1v1h-1zM45 36h1v1h-1zM50 36h1v1h-1zM53 36h1v1h-1zM54 36h1v1h-1zM55 36h1v1h-1zM56 36h1v1h-1zM57 36h1v1h-1zM58 36h1v1h-1zM4 37h1v1h-1zM8 37h1v1h-1zM9 37h1v1h-1zM13 37h1v1h-1zM14 37h1v1h-1zM18 37h1v1h-1zM19 37h1v1h-1zM22 37h1v1h-1zM23 37h1v1h-1zM27 37h1v1h-1zM28 37h1v1h-1zM30 37h1v1h-1zM33 37h1v1h-1zM34 37h1v1h-1zM35 37h1v1h-1zM36 37h1v1h-1zM37 37h1v1h-1zM39 37h1v1h-1zM43 37h1v1h-1zM44 37h1v1h-1zM46 37h1v1h-1zM47 37h1v1h-1zM49 37h1v1h-1zM51 37h1v1h-1zM53 37h1v1h-1zM57 37h1v1h-1zM60 37h1v1h-1zM4 38h1v1h-1zM6 38h1v1h-1zM8 38h1v1h-1zM10 38h1v1h-1zM13 38h1v1h-1zM16 38h1v1h-1zM18 38h1v1h-1zM20 38h1v1h-1zM24 38h1v1h-1zM25 38h1v1h-1zM28 38h1v1h-1zM31 38h1v1h-1zM33 38h1v1h-1zM35 38h1v1h-1zM36 38h1v1h-1zM38 38h1v1h-1zM39 38h1v1h-1zM41 38h1v1h-1zM46 38h1v1h-1zM50 38h1v1h-1zM53 38h1v1h-1zM54 38h1v1h-1zM56 38h1v1h-1zM57 38h1v1h-1zM59 38h1v1h-1zM60 38h1v1h-1zM5 39h1v1h-1zM6 39h1v1h-1zM7 39h1v1h-1zM9 39h1v1h-1zM12 39h1v1h-1zM13 39h1v1h-1zM14 39h1v1h-1zM15 39h1v1h-1zM18 39h1v1h-1zM20 39h1v1h-1zM22 39h1v1h-1zM23 39h1v1h-1zM27 39h1v1h-1zM28 39h1v1h-1zM29 39h1v1h-1zM31 39h1v1h-1zM32 39h1v1h-1zM33 39h1v1h-1zM35 39h1v1h-1zM36 39h1v1h-1zM43 39h1v1h-1zM45 39h1v1h-1zM46 39h1v1h-1zM47 39h1v1h-1zM48 39h1v1h-1zM51 39h1v1h-1zM52 39h1v1h-1zM53 39h1v1h-1zM54 39h1v1h-1zM56 39h1v1h-1zM57 39h1v1h-1zM60 39h1v1h-1zM5 40h1v1h-1zM6 40h1v1h-1zM7 40h1v1h-1zM8 40h1v1h-1zM9 40h1v1h-1zM10 40h1v1h-1zM12 40h1v1h-1zM13 40h1v1h-1zM15 40h1v1h-1zM16 40h1v1h-1zM18 40h1v1h-1zM21 40h1v1h-1zM22 40h1v1h-1zM27 40h1v1h-1zM28 40h1v1h-1zM29 40h1v1h-1zM34 40h1v1h-1zM35 40h1v1h-1zM37 40h1v1h-1zM38 40h1v1h-1zM39 40h1v1h-1zM40 40h1v1h-1zM41 40h1v1h-1zM42 40h1v1h-1zM43 40h1v1h-1zM49 40h1v1h-1zM50 40h1v1h-1zM54 40h1v1h-1zM60 40h1v1h-1zM4 41h1v1h-1zM5 41h1v1h-1zM8 41h1v1h-1zM9 41h1v1h-1zM11 41h1v1h-1zM12 41h1v1h-1zM15 41h1v1h-1zM18 41h1v1h-1zM21 41h1v1h-1zM22 41h1v1h-1zM23 41h1v1h-1zM27 41h1v1h-1zM30 41h1v1h-1zM33 41h1v1h-1zM36 41h1v1h-1zM37 41h1v1h-1zM39 41h1v1h-1zM40 41h1v1h-1zM41 41h1v1h-1zM42 41h1v1h-1zM43 41h1v1h-1zM44 41h1v1h-1zM47 41h1v1h-1zM49 41h1v1h-1zM52 41h1v1h-1zM54 41h1v1h-1zM55 41h1v1h-1zM58 41h1v1h-1zM9 42h1v1h-1zM10 42h1v1h-1zM11 42h1v1h-1zM13 42h1v1h-1zM15 42h1v1h-1zM16 42h1v1h-1zM19 42h1v1h-1zM20 42h1v1h-1zM21 42h1v1h-1zM23 42h1v1h-1zM24 42h1v1h-1zM27 42h1v1h-1zM31 42h1v1h-1zM32 42h1v1h-1zM33 42h1v1h-1zM38 42h1v1h-1zM39 42h1v1h-1zM42 42h1v1h-1zM44 42h1v1h-1zM48 42h1v1h-1zM49 42h1v1h-1zM50 42h1v1h-1zM55 42h1v1h-1zM60 42h1v1h-1zM7 43h1v1h-1zM11 43h1v1h-1zM12 43h1v1h-1zM17 43h1v1h-1zM18 43h1v1h-1zM19 43h1v1h-1zM22 43h1v1h-1zM23 43h1v1h-1zM24 43h1v1h-1zM28 43h1v1h-1zM30 43h1v1h-1zM31 43h1v1h-1zM35 43h1v1h-1zM37 43h1v1h-1zM42 43h1v1h-1zM46 43h1v1h-1zM48 43h1v1h-1zM51 43h1v1h-1zM53 43h1v1h-1zM57 43h1v1h-1zM58 43h1v1h-1zM7 44h1v1h-1zM8 44h1v1h-1zM10 44h1v1h-1zM11 44h1v1h-1zM12 44h1v1h-1zM13 44h1v1h-1zM14 44h1v1h-1zM17 44h1v1h-1zM23 44h1v1h-1zM27 44h1v1h-1zM30 44h1v1h-1zM32 44h1v1h-1zM34 44h1v1h-1zM36 44h1v1h-1zM37 44h1v1h-1zM42 44h1v1h-1zM43 44h1v1h-1zM45 44h1v1h-1zM47 44h1v1h-1zM48 44h1v1h-1zM49 44h1v1h-1zM51 44h1v1h-1zM54 44h1v1h-1zM57 44h1v1h-1zM58 44h1v1h-1zM60 44h1v1h-1zM4 45h1v1h-1zM5 45h1v1h-1zM6 45h1v1h-1zM7 45h1v1h-1zM8 45h1v1h-1zM9 45h1v1h-1zM14 45h1v1h-1zM16 45h1v1h-1zM19 45h1v1h-1zM20 45h1v1h-1zM22 45h1v1h-1zM23 45h1v1h-1zM25 45h1v1h-1zM27 45h1v1h-1zM29 45h1v1h-1zM30 45h1v1h-1zM31 45h1v1h-1zM32 45h1v1h-1zM33 45h1v1h-1zM34 45h1v1h-1zM38 45h1v1h-1zM39 45h1v1h-1zM41 45h1v1h-1zM43 45h1v1h-1zM44 45h1v1h-1zM45 45h1v1h-1zM49 45h1v1h-1zM50 45h1v1h-1zM51 45h1v1h-1zM52 45h1v1h-1zM55 45h1v1h-1zM56 45h1v1h-1zM57 45h1v1h-1zM58 45h1v1h-1zM5 46h1v1h-1zM6 46h1v1h-1zM10 46h1v1h-1zM11 46h1v1h-1zM12 46h1v1h-1zM14 46h1v1h-1zM18 46h1v1h-1zM19 46h1v1h-1zM22 46h1v1h-1zM23 46h1v1h-1zM24 46h1v1h-1zM26 46h1v1h-1zM31 46h1v1h-1zM33 46h1v1h-1zM34 46h1v1h-1zM37 46h1v1h-1zM41 46h1v1h-1zM42 46h1v1h-1zM44 46h1v1h-1zM47 46h1v1h-1zM49 46h1v1h-1zM50 46h1v1h-1zM51 46h1v1h-1zM52 46h1v1h-1zM53 46h1v1h-1zM56 46h1v1h-1zM57 46h1v1h-1zM59 46h1v1h-1zM5 47h1v1h-1zM9 47h1v1h-1zM11 47h1v1h-1zM13 47h1v1h-1zM15 47h1v1h-1zM16 47h1v1h-1zM19 47h1v1h-1zM24 47h1v1h-1zM26 47h1v1h-1zM28 47h1v1h-1zM31 47h1v1h-1zM37 47h1v1h-1zM39 47h1v1h-1zM40 47h1v1h-1zM46 47h1v1h-1zM49 47h1v1h-1zM51 47h1v1h-1zM52 47h1v1h-1zM53 47h1v1h-1zM55 47h1v1h-1zM60 47h1v1h-1zM4 48h1v1h-1zM9 48h1v1h-1zM10 48h1v1h-1zM12 48h1v1h-1zM15 48h1v1h-1zM25 48h1v1h-1zM27 48h1v1h-1zM29 48h1v1h-1zM30 48h1v1h-1zM32 48h1v1h-1zM33 48h1v1h-1zM41 48h1v1h-1zM42 48h1v1h-1zM43 48h1v1h-1zM44 48h1v1h-1zM46 48h1v1h-1zM49 48h1v1h-1zM50 48h1v1h-1zM52 48h1v1h-1zM56 48h1v1h-1zM57 48h1v1h-1zM59 48h1v1h-1zM60 48h1v1h-1zM7 49h1v1h-1zM9 49h1v1h-1zM11 49h1v1h-1zM14 49h1v1h-1zM16 49h1v1h-1zM17 49h1v1h-1zM18 49h1v1h-1zM21 49h1v1h-1zM22 49h1v1h-1zM23 49h1v1h-1zM25 49h1v1h-1zM27 49h1v1h-1zM28 49h1v1h-1zM30 49h1v1h-1zM33 49h1v1h-1zM34 49h1v1h-1zM35 49h1v1h-1zM36 49h1v1h-1zM39 49h1v1h-1zM40 49h1v1h-1zM41 49h1v1h-1zM45 49h1v1h-1zM46 49h1v1h-1zM47 49h1v1h-1zM51 49h1v1h-1zM52 49h1v1h-1zM53 49h1v1h-1zM4 50h1v1h-1zM6 50h1v1h-1zM9 50h1v1h-1zM10 50h1v1h-1zM11 50h1v1h-1zM12 50h1v1h-1zM13 50h1v1h-1zM15 50h1v1h-1zM16 50h1v1h-1zM17 50h1v1h-1zM18 50h1v1h-1zM19 50h1v1h-1zM22 50h1v1h-1zM23 50h1v1h-1zM24 50h1v1h-1zM31 50h1v1h-1zM33 50h1v1h-1zM36 50h1v1h-1zM38 50h1v1h-1zM39 50h1v1h-1zM42 50h1v1h-1zM44 50h1v1h-1zM47 50h1v1h-1zM48 50h1v1h-1zM51 50h1v1h-1zM53 50h1v1h-1zM54 50h1v1h-1zM55 50h1v1h-1zM56 50h1v1h-1zM59 50h1v1h-1zM60 50h1v1h-1zM4 51h1v1h-1zM5 51h1v1h-1zM6 51h1v1h-1zM7 51h1v1h-1zM8 51h1v1h-1zM11 51h1v1h-1zM14 51h1v1h-1zM15 51h1v1h-1zM17 51h1v1h-1zM18 51h1v1h-1zM19 51h1v1h-1zM26 51h1v1h-1zM28 51h1v1h-1zM29 51h1v1h-1zM30 51h1v1h-1zM33 51h1v1h-1zM34 51h1v1h-1zM36 51h1v1h-1zM37 51h1v1h-1zM39 51h1v1h-1zM40 51h1v1h-1zM43 51h1v1h-1zM47 51h1v1h-1zM48 51h1v1h-1zM51 51h1v1h-1zM52 51h1v1h-1zM53 51h1v1h-1zM55 51h1v1h-1zM59 51h1v1h-1zM10 52h1v1h-1zM13 52h1v1h-1zM15 52h1v1h-1zM16 52h1v1h-1zM17 52h1v1h-1zM18 52h1v1h-1zM20 52h1v1h-1zM21 52h1v1h-1zM22 52h1v1h-1zM23 52h1v1h-1zM29 52h1v1h-1zM30 52h1v1h-1zM31 52h1v1h-1zM32 52h1v1h-1zM33 52h1v1h-1zM34 52h1v1h-1zM35 52h1v1h-1zM37 52h1v1h-1zM39 52h1v1h-1zM40 52h1v1h-1zM41 52h1v1h-1zM42 52h1v1h-1zM43 52h1v1h-1zM46 52h1v1h-1zM47 52h1v1h-1zM50 52h1v1h-1zM52 52h1v1h-1zM53 52h1v1h-1zM54 52h1v1h-1zM55 52h1v1h-1zM56 52h1v1h-1zM60 52h1v1h-1zM12 53h1v1h-1zM14 53h1v1h-1zM15 53h1v1h-1zM17 53h1v1h-1zM21 53h1v1h-1zM23 53h1v1h-1zM24 53h1v1h-1zM26 53h1v1h-1zM27 53h1v1h-1zM30 53h1v1h-1zM34 53h1v1h-1zM40 53h1v1h-1zM41 53h1v1h-1zM42 53h1v1h-1zM47 53h1v1h-1zM49 53h1v1h-1zM51 53h1v1h-1zM52 53h1v1h-1zM56 53h1v1h-1zM57 53h1v1h-1zM58 53h1v1h-1zM4 54h1v1h-1zM5 54h1v1h-1zM6 54h1v1h-1zM7 54h1v1h-1zM8 54h1v1h-1zM9 54h1v1h-1zM10 54h1v1h-1zM13 54h1v1h-1zM15 54h1v1h-1zM16 54h1v1h-1zM17 54h1v1h-1zM18 54h1v1h-1zM23 54h1v1h-1zM24 54h1v1h-1zM25 54h1v1h-1zM28 54h1v1h-1zM30 54h1v1h-1zM32 54h1v1h-1zM34 54h1v1h-1zM35 54h1v1h-1zM37 54h1v1h-1zM39 54h1v1h-1zM43 54h1v1h-1zM44 54h1v1h-1zM47 54h1v1h-1zM48 54h1v1h-1zM52 54h1v1h-1zM54 54h1v1h-1zM56 54h1v1h-1zM57 54h1v1h-1zM58 54h1v1h-1zM59 54h1v1h-1zM4 55h1v1h-1zM10 55h1v1h-1zM14 55h1v1h-1zM18 55h1v1h-1zM20 55h1v1h-1zM21 55h1v1h-1zM22 55h1v1h-1zM24 55h1v1h-1zM30 55h1v1h-1zM34 55h1v1h-1zM35 55h1v1h-1zM37 55h1v1h-1zM38 55h1v1h-1zM39 55h1v1h-1zM40 55h1v1h-1zM41 55h1v1h-1zM43 55h1v1h-1zM44 55h1v1h-1zM46 55h1v1h-1zM52 55h1v1h-1zM56 55h1v1h-1zM57 55h1v1h-1zM58 55h1v1h-1zM59 55h1v1h-1zM60 55h1v1h-1zM4 56h1v1h-1zM6 56h1v1h-1zM7 56h1v1h-1zM8 56h1v1h-1zM10 56h1v1h-1zM13 56h1v1h-1zM14 56h1v1h-1zM17 56h1v1h-1zM18 56h1v1h-1zM23 56h1v1h-1zM24 56h1v1h-1zM25 56h1v1h-1zM27 56h1v1h-1zM29 56h1v1h-1zM30 56h1v1h-1zM31 56h1v1h-1zM32 56h1v1h-1zM33 56h1v1h-1zM34 56h1v1h-1zM35 56h1v1h-1zM36 56h1v1h-1zM37 56h1v1h-1zM43 56h1v1h-1zM45 56h1v1h-1zM46 56h1v1h-1zM47 56h1v1h-1zM48 56h1v1h-1zM49 56h1v1h-1zM51 56h1v1h-1zM52 56h1v1h-1zM53 56h1v1h-1zM54 56h1v1h-1zM55 56h1v1h-1zM56 56h1v1h-1zM57 56h1v1h-1zM58 56h1v1h-1zM60 56h1v1h-1zM4 57h1v1h-1zM6 57h1v1h-1zM7 57h1v1h-1zM8 57h1v1h-1zM10 57h1v1h-1zM12 57h1v1h-1zM15 57h1v1h-1zM16 57h1v1h-1zM19 57h1v1h-1zM23 57h1v1h-1zM25 57h1v1h-1zM27 57h1v1h-1zM28 57h1v1h-1zM32 57h1v1h-1zM33 57h1v1h-1zM34 57h1v1h-1zM36 57h1v1h-1zM37 57h1v1h-1zM38 57h1v1h-1zM40 57h1v1h-1zM43 57h1v1h-1zM44 57h1v1h-1zM45 57h1v1h-1zM47 57h1v1h-1zM48 57h1v1h-1zM50 57h1v1h-1zM51 57h1v1h-1zM54 57h1v1h-1zM59 57h1v1h-1zM4 58h1v1h-1zM6 58h1v1h-1zM7 58h1v1h-1zM8 58h1v1h-1zM10 58h1v1h-1zM12 58h1v1h-1zM13 58h1v1h-1zM19 58h1v1h-1zM20 58h1v1h-1zM21 58h1v1h-1zM23 58h1v1h-1zM25 58h1v1h-1zM29 58h1v1h-1zM36 58h1v1h-1zM37 58h1v1h-1zM39 58h1v1h-1zM40 58h1v1h-1zM42 58h1v1h-1zM46 58h1v1h-1zM50 58h1v1h-1zM51 58h1v1h-1zM52 58h1v1h-1zM54 58h1v1h-1zM57 58h1v1h-1zM4 59h1v1h-1zM10 59h1v1h-1zM12 59h1v1h-1zM13 59h1v1h-1zM14 59h1v1h-1zM15 59h1v1h-1zM16 59h1v1h-1zM17 59h1v1h-1zM19 59h1v1h-1zM20 59h1v1h-1zM21 59h1v1h-1zM22 59h1v1h-1zM24 59h1v1h-1zM28 59h1v1h-1zM29 59h1v1h-1zM34 59h1v1h-1zM36 59h1v1h-1zM37 59h1v1h-1zM38 59h1v1h-1zM44 59h1v1h-1zM49 59h1v1h-1zM52 59h1v1h-1zM53 59h1v1h-1zM54 59h1v1h-1zM55 59h1v1h-1zM56 59h1v1h-1zM60 59h1v1h-1zM4 60h1v1h-1zM5 60h1v1h-1zM6 60h1v1h-1zM7 60h1v1h-1zM8 60h1v1h-1zM9 60h1v1h-1zM10 60h1v1h-1zM12 60h1v1h-1zM13 60h1v1h-1zM15 60h1v1h-1zM19 60h1v1h-1zM21 60h1v1h-1zM24 60h1v1h-1zM25 60h1v1h-1zM26 60h1v1h-1zM31 60h1v1h-1zM32 60h1v1h-1zM36 60h1v1h-1zM39 60h1v1h-1zM41 60h1v1h-1zM43 60h1v1h-1zM44 60h1v1h-1zM45 60h1v1h-1zM49 60h1v1h-1zM53 60h1v1h-1zM54 60h1v1h-1zM55 60h1v1h-1zM56 60h1v1h-1zM58 60h1v1h-1z" fill="black"/></svg>